:SAMPLES-PER-SECOND 30
:FRAME-RANGE 1-3358
:FULLY-SPECIFIED
:DEGREES
1889
root  56.806 38.045 42.4261 5.32596 -78.1768 -7.65442
RightUpLeg  -21.2185 -4.26008 2.69782
RightLeg  10.8488 -9.27003 -0.0930014
RightFoot  7.66948 -0.29467 2.07398
RightToes  -5.8209e-011 0 -3.6325e-017
Spine  9.23044 -1.58628 3.41463
Spine1  -0.109438 -1.10971 -1.87481
HEad  -5.40734 -6.44781 -4.13288
LeftShoulder1  1.22582 0.250499 -31.62
LeftArm  14.0386 4.85906 -35.6869
LeftForeArm  10.8132 -32.169 -6.48018
LeftHand  0.234378 -3.89035 -2.67023
RightShoulder  6.01776 7.31181 48.7553
RightArm  19.7106 -3.39309 15.1287
RightForeArm  4.39142 9.52953 14.8324
RightHand  0.497066 7.25976 4.18584
LeftUpLeg  13.5825 9.44436 -2.57761
LeftLeg  18.5863 -5.03894 -1.69803
LeftFoot  -20.3862 0.0656891 -0.715789
LeftToes  -4.03819e-010 -8.71445e-011 8.52097e-011
1890
root  55.5446 37.8805 42.715 9.69325 -77.8497 -12.6489
RightUpLeg  -22.3376 -6.47163 5.1104
RightLeg  17.7906 -6.17428 -2.38263
RightFoot  4.67293 -0.132961 1.17228
RightToes  -5.8209e-011 0 -3.6325e-017
Spine  9.33602 -1.77795 6.18551
Spine1  -0.213759 -0.982623 -2.18656
HEad  -4.89281 -5.90574 -5.64885
LeftShoulder1  1.20342 0.401765 -32.7322
LeftArm  18.6159 5.55283 -35.3318
LeftForeArm  3.83601 -26.4647 -5.48493
LeftHand  0.202582 -3.58125 -2.37309
RightShoulder  5.98292 7.31768 48.4452
RightArm  15.628 -3.23281 14.2278
RightForeArm  7.41466 6.54899 15.9482
RightHand  0.491362 7.45179 4.06217
LeftUpLeg  13.8624 10.466 -0.356779
LeftLeg  23.4921 -5.91912 -2.47513
LeftFoot  -19.7943 -0.131185 -3.38038
LeftToes  -4.03819e-010 -8.71445e-011 8.52097e-011
1891
root  54.3728 37.8965 42.9534 13.4964 -76.8616 -16.2085
RightUpLeg  -22.2081 -6.2167 5.91957
RightLeg  20.8611 -7.00922 -3.1564
RightFoot  2.01512 -0.00935903 0.197364
RightToes  -5.8209e-011 0 -3.6325e-017
Spine  8.7256 -1.94234 7.88968
Spine1  -0.0432492 -1.26558 -0.741865
HEad  -3.62724 -5.22178 -6.50158
LeftShoulder1  1.17139 0.509492 -33.0549
LeftArm  21.0382 7.09222 -35.5888
LeftForeArm  -1.20051 -20.2619 -6.96436
LeftHand  0.195623 -3.2065 -2.41102
RightShoulder  6.00706 7.39905 48.2759
RightArm  11.8964 -3.17706 13.2068
RightForeArm  9.6328 3.71331 16.6601
RightHand  0.47807 7.24116 4.01911
LeftUpLeg  11.9261 11.8996 2.33604
LeftLeg  29.8014 -6.7054 -3.79437
LeftFoot  -16.0415 -0.198471 -7.16873
LeftToes  -4.03819e-010 -8.71445e-011 8.52097e-011
1892
root  53.3631 37.9446 43.1423 16.1767 -75.1955 -17.8895
RightUpLeg  -22.3735 -7.42675 6.7158
RightLeg  22.4679 -7.03485 -3.40443
RightFoot  -0.310071 -0.0349047 0.339423
RightToes  -5.8209e-011 0 -3.6325e-017
Spine  8.58728 -2.12005 9.11288
Spine1  -1.31827 -1.52301 0.971531
HEad  -1.56167 -5.10768 -6.86238
LeftShoulder1  1.17131 0.501146 -32.9442
LeftArm  11.4542 8.48506 -35.1183
LeftForeArm  7.14731 -12.2403 -13.1907
LeftHand  0.216086 -2.96868 -2.78299
RightShoulder  5.61565 6.73486 48.06
RightArm  8.9586 -3.05137 12.4228
RightForeArm  11.3051 1.76622 16.887
RightHand  0.477446 7.15705 4.04466
LeftUpLeg  6.97973 13.0018 4.8006
LeftLeg  38.3144 -6.85201 -5.41059
LeftFoot  -8.45322 0.336521 -11.3169
LeftToes  -4.03819e-010 -8.71445e-011 8.52097e-011
1893
root  52.5555 37.9183 43.3094 17.4592 -73.9473 -18.369
RightUpLeg  -22.7593 -8.14647 7.08102
RightLeg  24.3256 -7.08819 -3.69087
RightFoot  -2.49396 -0.0968804 1.03244
RightToes  -5.8209e-011 0 -3.6325e-017
Spine  9.40348 -2.18568 10.1973
Spine1  -2.67555 -1.43894 2.14275
HEad  -0.948548 -5.74803 -6.51122
LeftShoulder1  1.17466 0.473097 -32.6954
LeftArm  6.21133 10.0822 -34.3797
LeftForeArm  12.5853 -6.53301 -15.8551
LeftHand  0.347055 -3.2143 -4.45304
RightShoulder  5.30719 6.20616 47.895
RightArm  6.91935 -2.95406 11.9712
RightForeArm  11.0229 1.57821 16.7466
RightHand  0.496329 6.91365 4.31501
LeftUpLeg  0.805444 13.8839 6.47937
LeftLeg  47.5558 -6.31853 -6.94136
LeftFoot  1.03577 1.43907 -13.2828
LeftToes  -4.03819e-010 -8.71445e-011 8.52097e-011
1894
root  51.8653 37.8588 43.5036 17.3564 -73.0705 -18.0021
RightUpLeg  -22.7324 -8.36134 6.94351
RightLeg  26.2905 -7.44934 -4.08612
RightFoot  -4.6024 -0.130405 1.6827
RightToes  -5.8209e-011 0 -3.6325e-017
Spine  10.3943 -2.37068 11.354
Spine1  -2.97436 -1.32053 2.64745
HEad  -1.73972 -6.86592 -5.49293
LeftShoulder1  1.18798 0.422759 -32.4959
LeftArm  6.27104 11.9797 -33.373
LeftForeArm  14.314 -4.69549 -16.5505
LeftHand  0.455576 -3.46381 -5.73056
RightShoulder  5.37757 6.30215 48.0561
RightArm  6.02903 -2.57179 11.5265
RightForeArm  9.70589 2.4992 16.4806
RightHand  0.528612 6.88798 4.62933
LeftUpLeg  -4.58912 14.1599 7.29577
LeftLeg  54.6644 -4.65589 -6.55894
LeftFoot  8.02947 2.61321 -15.5204
LeftToes  -4.03819e-010 -8.71445e-011 8.52097e-011
1895
root  51.0955 38.0301 43.7512 15.5616 -73.0928 -15.848
RightUpLeg  -21.5168 -7.49862 5.89392
RightLeg  26.3079 -8.32529 -4.33081
RightFoot  -5.81995 -0.144698 2.17958
RightToes  -5.8209e-011 0 -3.6325e-017
Spine  10.6501 -2.20196 11.785
Spine1  -2.81087 -0.992461 2.03785
HEad  -2.37964 -7.60812 -4.44531
LeftShoulder1  1.17507 0.446629 -32.3745
LeftArm  7.72049 13.6824 -32.2627
LeftForeArm  14.4859 -4.31727 -16.8124
LeftHand  0.456238 -3.35349 -5.82022
RightShoulder  5.64242 6.78884 48.0353
RightArm  5.22237 -1.97855 11.4269
RightForeArm  8.90583 3.5016 16.1329
RightHand  0.525804 6.81025 4.63637
LeftUpLeg  -9.36998 15.1998 6.93118
LeftLeg  59.2437 -2.25421 -3.55714
LeftFoot  5.8001 2.00889 -13.5135
LeftToes  -4.03819e-010 -8.71445e-011 8.52097e-011
1896
root  50.3356 38.2842 44.0418 13.0131 -73.6776 -12.9375
RightUpLeg  -19.8331 -6.60887 4.46062
RightLeg  25.3859 -8.87562 -4.15249
RightFoot  -6.61176 -0.148733 2.51263
RightToes  -5.8209e-011 0 -3.6325e-017
Spine  10.9281 -1.79866 11.8678
Spine1  -3.06582 -0.494014 1.07426
HEad  -2.09927 -8.80468 -3.96052
LeftShoulder1  1.15124 0.506285 -32.3438
LeftArm  7.42617 15.5036 -31.1608
LeftForeArm  14.0511 -4.41682 -16.7857
LeftHand  0.418385 -3.23284 -5.40207
RightShoulder  5.83783 7.22009 47.6936
RightArm  5.40634 -1.25694 11.5429
RightForeArm  7.58073 4.73032 15.8029
RightHand  0.542091 6.85865 4.76916
LeftUpLeg  -13.6558 16.1591 5.93916
LeftLeg  60.7138 -0.855557 -1.08871
LeftFoot  2.907 1.37021 -11.0786
LeftToes  -4.03819e-010 -8.71445e-011 8.52097e-011
1897
root  49.601 38.545 44.3487 10.61 -74.2533 -10.3462
RightUpLeg  -17.7342 -6.70993 3.06472
RightLeg  23.7972 -8.63709 -3.16246
RightFoot  -7.13862 -0.134035 2.33061
RightToes  -5.8209e-011 0 -3.6325e-017
Spine  11.2714 -1.27467 11.8391
Spine1  -3.52503 0.0469353 0.368047
HEad  -1.09563 -10.0378 -3.88972
LeftShoulder1  1.10808 0.620169 -32.3618
LeftArm  6.44949 17.0949 -30.1702
LeftForeArm  12.8619 -5.09938 -16.5057
LeftHand  0.421776 -3.21877 -5.45771
RightShoulder  5.9888 7.64596 47.0449
RightArm  6.04668 -0.81171 11.6783
RightForeArm  5.61968 6.36797 15.3266
RightHand  0.61502 6.95983 5.40698
LeftUpLeg  -17.1131 16.6405 5.13496
LeftLeg  59.033 -0.536247 -0.428931
LeftFoot  0.215276 0.976421 -9.64672
LeftToes  -4.03819e-010 -8.71445e-011 8.52097e-011
1898
root  48.8562 38.8547 44.6505 7.59468 -74.6698 -7.33136
RightUpLeg  -14.9549 -6.88365 1.49134
RightLeg  21.3233 -8.54731 -1.99027
RightFoot  -7.43289 -0.13668 2.52518
RightToes  -5.8209e-011 0 -3.6325e-017
Spine  11.4588 -0.731621 11.3703
Spine1  -3.89926 0.529657 -0.355311
HEad  0.164718 -11.2463 -3.89284
LeftShoulder1  1.05502 0.741226 -32.1236
LeftArm  5.4051 18.4 -29.6437
LeftForeArm  11.724 -6.21167 -16.0172
LeftHand  0.439626 -3.1835 -5.72445
RightShoulder  6.0829 7.95955 46.462
RightArm  7.09616 -0.218195 11.6055
RightForeArm  2.58753 8.16227 14.7791
RightHand  0.665654 6.8711 5.92771
LeftUpLeg  -19.2071 16.6068 4.4446
LeftLeg  53.7839 -0.801127 -0.70708
LeftFoot  -2.07055 0.727867 -8.81287
LeftToes  -4.03819e-010 -8.71445e-011 8.52097e-011
1899
root  48.1184 39.1419 44.9381 4.82288 -75.048 -4.62952
RightUpLeg  -12.0936 -6.64232 0.225174
RightLeg  18.6697 -8.62627 -1.26431
RightFoot  -7.52294 -0.144032 2.78669
RightToes  -5.8209e-011 0 -3.6325e-017
Spine  11.3339 -0.194585 10.7107
Spine1  -3.97994 0.98645 -1.11159
HEad  1.24127 -12.344 -3.90423
LeftShoulder1  0.952026 0.988737 -31.7824
LeftArm  5.22514 19.3576 -29.295
LeftForeArm  10.4036 -7.87978 -15.2929
LeftHand  0.472529 -3.37214 -6.02193
RightShoulder  6.32042 8.52219 46.0016
RightArm  5.61399 0.834416 11.1964
RightForeArm  1.31326 8.44926 14.6005
RightHand  0.724848 6.69445 6.58927
LeftUpLeg  -19.9496 16.9705 4.08362
LeftLeg  45.3113 -0.396994 -0.0300671
LeftFoot  -3.32085 0.706571 -9.77824
LeftToes  -4.03819e-010 -8.71445e-011 8.52097e-011
1900
root  47.4148 39.3961 45.2048 1.89671 -75.6525 -1.81238
RightUpLeg  -9.56185 -6.2745 -0.704428
RightLeg  16.4285 -8.4394 -1.12738
RightFoot  -7.51677 -0.154465 3.09542
RightToes  -5.8209e-011 0 -3.6325e-017
Spine  10.9844 0.389216 9.74267
Spine1  -3.71441 1.5135 -1.96325
HEad  1.89953 -13.152 -3.6862
LeftShoulder1  0.861483 1.21603 -31.5812
LeftArm  6.14289 20.1269 -28.845
LeftForeArm  8.07586 -10.215 -14.1954
LeftHand  0.502705 -3.58003 -6.25646
RightShoulder  6.69102 9.34371 45.5661
RightArm  2.67696 2.1842 10.6663
RightForeArm  -0.113722 8.00959 14.6661
RightHand  0.775903 6.22891 7.38635
LeftUpLeg  -19.1784 18.429 3.57637
LeftLeg  34.2404 1.28356 1.29043
LeftFoot  -3.85364 0.689131 -10.1598
LeftToes  -4.03819e-010 -8.71445e-011 8.52097e-011
1901
root  46.7273 39.5679 45.4951 -1.0741 -76.3177 0.564331
RightUpLeg  -7.06679 -5.92188 -1.33949
RightLeg  15.1416 -8.07435 -1.54198
RightFoot  -7.88596 -0.161629 3.58028
RightToes  -5.8209e-011 0 -3.6325e-017
Spine  10.7359 0.733298 9.00539
Spine1  -3.16314 1.99357 -3.24868
HEad  2.86839 -13.6132 -3.47095
LeftShoulder1  0.791525 1.38585 -31.2935
LeftArm  8.09657 21.0152 -28.4097
LeftForeArm  4.40114 -12.8968 -12.7211
LeftHand  0.53588 -3.23971 -6.97546
RightShoulder  7.25739 10.5864 45.0367
RightArm  -1.61632 3.72888 10.1323
RightForeArm  -0.827741 6.7295 14.8863
RightHand  0.866222 5.97252 8.48371
LeftUpLeg  -16.6082 19.6043 3.08496
LeftLeg  22.3803 1.51674 1.01363
LeftFoot  -3.45938 0.699369 -9.83403
LeftToes  -4.03819e-010 -8.71445e-011 8.52097e-011
